<svg id="Layer_1" data-name="Layer 1" xmlns="http://www.w3.org/2000/svg" xmlns:xlink="http://www.w3.org/1999/xlink" viewBox="0 0 4081 7943.228"><defs><style>.cls-1{fill:url(#Degradado_sin_nombre_4);}.cls-2{fill:url(#Degradado_sin_nombre_5);}.cls-3{fill:url(#Degradado_sin_nombre_9);}.cls-4{fill:url(#Degradado_sin_nombre_10);}.cls-5{fill:none;}.cls-6{fill:#003880;}.cls-7{clip-path:url(#clip-path);}.cls-8{fill:url(#Degradado_sin_nombre);}.cls-9{clip-path:url(#clip-path-2);}.cls-10{fill:url(#Degradado_sin_nombre_2);}.cls-11{clip-path:url(#clip-path-3);}.cls-12{fill:url(#Degradado_sin_nombre_3);}.cls-13{mask:url(#mask);}.cls-14{fill:#ecf955;fill-rule:evenodd;}.cls-15{mask:url(#mask-2);}.cls-16{clip-path:url(#clip-path-4);}.cls-17{fill:url(#Degradado_sin_nombre_6);}.cls-18{clip-path:url(#clip-path-5);}.cls-19{fill:url(#Degradado_sin_nombre_7);}.cls-20{clip-path:url(#clip-path-6);}.cls-21{fill:url(#Degradado_sin_nombre_8);}.cls-22{mask:url(#mask-3);}.cls-23{mask:url(#mask-4);}</style><linearGradient id="Degradado_sin_nombre_4" x1="1373.271" y1="2922.177" x2="-782.744" y2="3678.321" gradientTransform="matrix(0, -1, -1, 0, 5541.5, 5410.67)" gradientUnits="userSpaceOnUse"><stop offset="0" stop-color="#fff"/><stop offset="1"/></linearGradient><linearGradient id="Degradado_sin_nombre_5" x1="-85.047" y1="3379.6" x2="-1227.204" y2="3593.273" gradientTransform="matrix(0, -1, -1, 0, 5541.5, 5467.243)" xlink:href="#Degradado_sin_nombre_4"/><linearGradient id="Degradado_sin_nombre_9" x1="1397.985" y1="4079.83" x2="3553.958" y2="3323.685" gradientTransform="matrix(0, -1, -1, 0, 5541.5, 4360.573)" xlink:href="#Degradado_sin_nombre_4"/><linearGradient id="Degradado_sin_nombre_10" x1="2723.043" y1="3622.394" x2="3865.2" y2="3408.722" gradientTransform="matrix(0, -1, -1, 0, 5541.5, 4170.725)" xlink:href="#Degradado_sin_nombre_4"/><clipPath id="clip-path" transform="translate(0 471.614)"><path class="cls-5" d="M0,4417.264C255.507,4927,248.369,5695.045,952.572,5613.367c805.169-93.388,468.084-931.873,995.253-931.873,195.508,0,354,158.5,354,354.015,0,558.6,258.164,749.426,525.322,785.247,646.839,86.729,825.476-843.572,1253.854-1042.105V7000H0Z"/></clipPath><linearGradient id="Degradado_sin_nombre" x1="-1374.059" y1="3920.928" x2="1983.842" y2="2751.64" gradientTransform="matrix(0, -1, -1, 0, 5541.5, 6012.114)" gradientUnits="userSpaceOnUse"><stop offset="0" stop-color="#003780"/><stop offset="0.41" stop-color="#0b9990"/><stop offset="1" stop-color="#ecf955"/></linearGradient><clipPath id="clip-path-2" transform="translate(0 471.614)"><path class="cls-5" d="M4081,5232.2V7000H0V4916.613c252.809,529.051,242.889,1335.33,946.244,1253.749,805.169-93.389,474.412-1001.5,1001.582-1001.5,195.508,0,354,158.5,354,354.015,0,558.594,232.847,844.369,500.005,880.19C3547.02,6502.99,3480.846,5157.91,4081,5232.2"/></clipPath><linearGradient id="Degradado_sin_nombre_2" x1="-1503.813" y1="3715.436" x2="996.445" y2="3221.751" xlink:href="#Degradado_sin_nombre"/><clipPath id="clip-path-3" transform="translate(0 471.614)"><path class="cls-5" d="M4081,5708.462V7000H0V6082.814c91.27,92.046,198.338,184.647,327.135,276.677C735.106,6651,1231.52,6460.939,1514.777,6211.365c359.463-316.719,453.526-222.759,623.708-36.575C3323.847,7471.614,3506.723,5664.849,4081,5708.462"/></clipPath><linearGradient id="Degradado_sin_nombre_3" x1="-3136.837" y1="4476.25" x2="230.371" y2="2919.253" xlink:href="#Degradado_sin_nombre"/><mask id="mask" x="0" y="5388.226" width="4081" height="1542.403" maskUnits="userSpaceOnUse"><g transform="translate(0 471.614)"><g id="SVGID"><rect class="cls-1" y="4916.612" width="4081" height="1542.403"/></g></g></mask><mask id="mask-2" x="0" y="6179.296" width="4081" height="987.063" maskUnits="userSpaceOnUse"><g transform="translate(0 471.614)"><g id="SVGID-2" data-name="SVGID"><rect class="cls-2" y="5707.682" width="4081" height="987.063"/></g></g></mask><clipPath id="clip-path-4" transform="translate(0 471.614)"><path class="cls-5" d="M4081,2582.736c-255.507-509.738-248.369-1277.781-952.572-1196.1-805.169,93.389-468.084,931.873-995.253,931.873-195.508,0-354-158.5-354-354.015,0-558.6-258.164-749.427-525.322-785.247C607.016,1092.514,428.379,2022.815,0,2221.348V0H4081Z"/></clipPath><linearGradient id="Degradado_sin_nombre_6" x1="5455.08" y1="3081.07" x2="2097.137" y2="4250.358" xlink:href="#Degradado_sin_nombre"/><clipPath id="clip-path-5" transform="translate(0 471.614)"><path class="cls-5" d="M0,1767.8V0H4081V2083.388c-252.809-529.052-242.889-1335.331-946.244-1253.75-805.169,93.389-474.412,1001.5-1001.582,1001.5-195.508,0-354-158.5-354-354.016,0-558.593-232.847-844.369-500-880.189C533.98,497.01,600.154,1842.09,0,1767.8"/></clipPath><linearGradient id="Degradado_sin_nombre_7" x1="5584.832" y1="3286.56" x2="3084.574" y2="3780.245" xlink:href="#Degradado_sin_nombre"/><clipPath id="clip-path-6" transform="translate(0 471.614)"><path class="cls-5" d="M0,1291.538V0H4081V917.186c-91.27-92.047-198.338-184.647-327.135-276.678C3345.893,349,2849.48,539.06,2566.223,788.634c-359.463,316.719-453.526,222.759-623.708,36.575C757.153-471.614,574.277,1335.151,0,1291.538"/></clipPath><linearGradient id="Degradado_sin_nombre_8" x1="7217.854" y1="2525.742" x2="3850.645" y2="4082.739" xlink:href="#Degradado_sin_nombre"/><mask id="mask-3" x="0" y="1012.599" width="4081" height="1542.403" maskUnits="userSpaceOnUse"><g transform="translate(0 471.614)"><g id="SVGID-3" data-name="SVGID"><rect class="cls-3" y="540.985" width="4081" height="1542.403"/></g></g></mask><mask id="mask-4" x="0" y="776.868" width="4081" height="987.063" maskUnits="userSpaceOnUse"><g transform="translate(0 471.614)"><g id="SVGID-4" data-name="SVGID"><rect class="cls-4" y="305.254" width="4081" height="987.063"/></g></g></mask></defs><rect class="cls-6" y="471.614" width="4081" height="7000"/><g class="cls-7"><rect class="cls-8" y="4888.878" width="4081" height="2582.736"/></g><g class="cls-9"><rect class="cls-10" y="5388.227" width="4081" height="2083.387"/></g><g class="cls-11"><rect class="cls-12" y="6136.463" width="4081" height="1806.765"/></g><g class="cls-13"><path class="cls-14" d="M946.244,6170.362C242.889,6251.943,252.809,5445.664,0,4916.613v50.635C252.809,5496.3,242.889,6302.579,946.244,6221c805.169-93.392,474.412-1001.5,1001.582-1001.5,195.508,0,354,158.5,354,354.016,0,558.6,232.847,844.369,500.005,880.19C3547.02,6553.625,3480.846,5208.547,4081,5282.839V5232.2c-600.154-74.291-533.98,1270.789-1279.171,1170.871-267.158-35.821-500.005-321.6-500.005-880.19,0-195.518-158.49-354.015-354-354.015-527.17,0-196.413,908.107-1001.582,1001.495" transform="translate(0 471.614)"/></g><g class="cls-15"><path class="cls-14" d="M2138.485,6174.79c-170.182-186.184-264.245-280.144-623.708,36.575C1231.52,6460.939,735.106,6651,327.135,6359.491,198.338,6267.461,91.27,6174.86,0,6082.814v50.636C91.27,6225.5,198.338,6318.1,327.135,6410.128,735.107,6701.638,1231.52,6511.574,1514.777,6262c359.463-316.717,453.526-222.759,623.708-36.575C3323.847,7522.251,3506.723,5715.484,4081,5759.1v-50.638c-574.277-43.613-757.153,1763.152-1942.515,466.328" transform="translate(0 471.614)"/></g><g class="cls-16"><rect class="cls-17" y="471.614" width="4081" height="2582.736"/></g><g class="cls-18"><rect class="cls-19" y="471.615" width="4081" height="2083.387"/></g><g class="cls-20"><rect class="cls-21" width="4081" height="1806.765"/></g><g class="cls-22"><path class="cls-14" d="M3134.756,829.637c703.354-81.581,693.435,724.7,946.244,1253.75v-50.635C3828.191,1503.7,3838.111,697.42,3134.756,779c-805.169,93.392-474.412,1001.5-1001.582,1001.5-195.508,0-354-158.5-354-354.017,0-558.594-232.847-844.369-500-880.189C533.98,446.375,600.154,1791.453,0,1717.161V1767.8C600.154,1842.09,533.98,497.01,1279.172,596.928c267.158,35.821,500,321.6,500,880.189,0,195.518,158.49,354.016,354,354.016,527.169,0,196.412-908.107,1001.581-1001.5" transform="translate(0 471.614)"/></g><g class="cls-23"><path class="cls-14" d="M1942.515,825.209c170.182,186.185,264.246,280.145,623.708-36.575C2849.48,539.06,3345.893,349,3753.865,640.508c128.8,92.03,235.865,184.631,327.135,276.678V866.55C3989.73,774.5,3882.662,681.9,3753.865,589.872,3345.893,298.361,2849.48,488.425,2566.223,738c-359.463,316.716-453.526,222.758-623.708,36.575C757.153-522.251,574.277,1284.516,0,1240.9v50.637c574.277,43.614,757.153-1763.151,1942.515-466.328" transform="translate(0 471.614)"/></g></svg>